<?xml version="1.0" encoding="UTF-8"?>
<svg width="342px" height="59px" viewBox="0 0 342 59" version="1.1" xmlns="http://www.w3.org/2000/svg" xmlns:xlink="http://www.w3.org/1999/xlink">
    <!-- Generator: Sketch 46.2 (44496) - http://www.bohemiancoding.com/sketch -->
    <title>logo</title>
    <desc>Created with Sketch.</desc>
    <defs></defs>
    <g id="Page-1" stroke="none" stroke-width="1" fill="none" fill-rule="evenodd">
        <g id="Desktop-HD" transform="translate(-549.000000, -152.000000)">
            <g id="logo" transform="translate(549.000000, 148.000000)">
                <path d="M15.4076451,40.4199219 C15.2123317,40.4199219 15.0365522,40.3417977 14.8803014,40.1855469 C14.7240506,40.0488274 14.6459264,39.8730479 14.6459264,39.6582031 L14.6459264,11.4160156 C14.6459264,10.986326 14.4994435,10.6250015 14.2064733,10.3320312 C13.8939717,10.0195297 13.5228817,9.86328125 13.093192,9.86328125 L3.22014514,9.86328125 C2.86858088,9.86328125 2.56584953,9.99023311 2.31194201,10.2441406 C2.05803449,10.4980481 1.93108264,10.8007795 1.93108264,11.1523438 C1.93108264,11.5820334 2.12639318,11.9335924 2.51702014,12.2070312 C2.65373957,12.304688 2.79045695,12.4218743 2.92717639,12.5585938 C3.55217951,13.1835969 3.86467639,13.9355425 3.86467639,14.8144531 L3.86467639,48.4472656 C3.86467639,48.8769553 4.0111593,49.2382798 4.30412951,49.53125 C4.61663107,49.8437516 4.98772111,50 5.41741076,50 L32.8685826,50 C33.2982723,50 33.6693623,49.8437516 33.9818639,49.53125 C34.2748341,49.2382798 34.421317,48.8769553 34.421317,48.4472656 L34.421317,41.9726562 C34.421317,41.5429666 34.2748341,41.1816421 33.9818639,40.8886719 C33.6693623,40.5761703 33.2982723,40.4199219 32.8685826,40.4199219 L15.4076451,40.4199219 Z M47.421596,40.3613281 C48.6911336,41.8261792 50.2145559,42.5585938 51.9919085,42.5585938 C53.7887925,42.5585938 55.3219803,41.8261792 56.5915179,40.3613281 C57.8610555,38.8964771 58.4958148,37.1289166 58.4958148,35.0585938 C58.4958148,32.9882709 57.8610555,31.2207104 56.5915179,29.7558594 C55.3219803,28.2910083 53.7887925,27.5585938 51.9919085,27.5585938 C50.2145559,27.5585938 48.6911336,28.2910083 47.421596,29.7558594 C46.1520584,31.2207104 45.5172991,32.9882709 45.5172991,35.0585938 C45.5172991,37.1289166 46.1520584,38.8964771 47.421596,40.3613281 Z M40.8297991,24.1015625 C43.9157521,21.0742036 47.636418,19.5605469 51.9919085,19.5605469 C56.3669304,19.5605469 60.0973618,21.0742036 63.1833148,24.1015625 C66.2692677,27.1289214 67.812221,30.7812286 67.812221,35.0585938 C67.812221,39.3359589 66.2692677,42.9882661 63.1833148,46.015625 C60.0973618,49.0429839 56.3669304,50.5566406 51.9919085,50.5566406 C47.636418,50.5566406 43.9157521,49.0429839 40.8297991,46.015625 C37.7438462,42.9882661 36.2008929,39.3359589 36.2008929,35.0585938 C36.2008929,30.7812286 37.7438462,27.1289214 40.8297991,24.1015625 Z M81.1347657,40.3320312 C82.5800854,41.777351 84.3183492,42.5 86.3496094,42.5 C88.3808696,42.5 90.1093679,41.777351 91.5351563,40.3320312 C92.980476,38.8671802 93.703125,37.1093853 93.703125,35.0585938 C93.703125,33.0078022 92.980476,31.2597729 91.5351563,29.8144531 C90.1093679,28.3496021 88.3808696,27.6171875 86.3496094,27.6171875 C84.3183492,27.6171875 82.5800854,28.3496021 81.1347657,29.8144531 C79.6894459,31.2597729 78.9667969,33.0078022 78.9667969,35.0585938 C78.9667969,37.1093853 79.6894459,38.8671802 81.1347657,40.3320312 Z M103.986328,20.3515625 C104.220704,20.5664073 104.337891,20.8300766 104.337891,21.1425781 C104.337891,21.5332051 104.171877,21.845702 103.839844,22.0800781 C103.703124,22.1582035 103.576172,22.2558588 103.458984,22.3730469 C102.912107,22.9199246 102.638672,23.5742149 102.638672,24.3359375 L102.638672,46.953125 C102.638672,51.4062723 100.910174,55.1367037 97.453125,58.1445312 C94.1523273,60.996108 90.2754129,62.421875 85.8222657,62.421875 C83.5566293,62.421875 81.3593857,62.1386747 79.2304688,61.5722656 C76.7890503,60.9081998 74.9628967,60.0000058 73.7519532,58.8476562 C73.4785143,58.496092 73.361328,58.0957054 73.4003907,57.6464844 C73.4394534,57.177732 73.6249984,56.7968765 73.9570313,56.5039062 L77.2382813,53.5449219 C77.8437531,52.8808561 78.5371055,52.7734353 79.3183594,53.2226562 C81.1347747,54.277349 83.4785013,54.6875012 86.3496094,54.453125 C88.2832128,54.2773429 89.8554627,53.6621146 91.0664063,52.6074219 C92.3164125,51.4941351 93.0488271,49.9804783 93.2636719,48.0664062 L93.234375,47.2167969 C90.5976431,49.4433705 87.6289228,50.5566406 84.328125,50.5566406 C80.3632615,50.5566406 76.9062648,49.0429839 73.9570313,46.015625 C70.9882664,42.9492034 69.5039063,39.2968962 69.5039063,35.0585938 C69.5039063,30.8202913 70.9882664,27.1679841 73.9570313,24.1015625 C76.9062648,21.0742036 80.3632615,19.5605469 84.328125,19.5605469 C87.6289228,19.5605469 90.5976431,20.673817 93.234375,22.9003906 L93.234375,21.5234375 C93.234375,21.0937479 93.3808579,20.7421889 93.6738282,20.46875 C93.9667984,20.1757798 94.3183574,20.0292969 94.7285157,20.0292969 L103.195313,20.0292969 C103.507814,20.0292969 103.771483,20.1367177 103.986328,20.3515625 Z M117.103795,40.3613281 C118.373332,41.8261792 119.896755,42.5585938 121.674107,42.5585938 C123.470991,42.5585938 125.004179,41.8261792 126.273717,40.3613281 C127.543254,38.8964771 128.178013,37.1289166 128.178013,35.0585938 C128.178013,32.9882709 127.543254,31.2207104 126.273717,29.7558594 C125.004179,28.2910083 123.470991,27.5585938 121.674107,27.5585938 C119.896755,27.5585938 118.373332,28.2910083 117.103795,29.7558594 C115.834257,31.2207104 115.199498,32.9882709 115.199498,35.0585938 C115.199498,37.1289166 115.834257,38.8964771 117.103795,40.3613281 Z M110.511998,24.1015625 C113.597951,21.0742036 117.318617,19.5605469 121.674107,19.5605469 C126.049129,19.5605469 129.77956,21.0742036 132.865513,24.1015625 C135.951466,27.1289214 137.49442,30.7812286 137.49442,35.0585938 C137.49442,39.3359589 135.951466,42.9882661 132.865513,46.015625 C129.77956,49.0429839 126.049129,50.5566406 121.674107,50.5566406 C117.318617,50.5566406 113.597951,49.0429839 110.511998,46.015625 C107.426045,42.9882661 105.883092,39.3359589 105.883092,35.0585938 C105.883092,30.7812286 107.426045,27.1289214 110.511998,24.1015625 Z M179.989118,27.3242188 C181.141468,27.7929711 182.176614,28.3691372 183.094587,29.0527344 C185.868038,31.1230572 187.254743,34.1796673 187.254743,38.2226562 C187.254743,41.8359556 185.897335,44.8730346 183.182478,47.3339844 C180.037931,50.1855611 175.623912,51.6113281 169.94029,51.6113281 C165.780113,51.6113281 162.225461,50.8007894 159.276228,49.1796875 C156.307463,47.5390543 154.325061,45.2636864 153.328962,42.3535156 L153.328962,42.3242188 C153.172711,41.9140604 152.928573,41.5429704 152.59654,41.2109375 C152.479352,41.0742181 152.342635,40.9570317 152.186384,40.859375 C151.795757,40.5859361 151.600446,40.2343771 151.600446,39.8046875 C151.600446,39.4335919 151.727398,39.1308605 151.981306,38.8964844 C152.235213,38.6425769 152.537945,38.515625 152.889509,38.515625 L162.616071,38.515625 C163.182481,38.515625 163.553571,38.7890598 163.729353,39.3359375 C164.061386,40.3320362 164.754738,41.1230439 165.809431,41.7089844 C166.942249,42.3339875 168.319188,42.6464844 169.94029,42.6464844 C171.893425,42.6464844 173.446144,42.2363322 174.598493,41.4160156 C175.750843,40.6152304 176.327009,39.5507879 176.327009,38.2226562 C176.327009,35.9179572 174.110234,34.7070318 169.676618,34.5898438 C164.520343,34.4531243 160.526242,33.2910266 157.694196,31.1035156 C154.7059,28.7792853 153.211775,25.6933786 153.211775,21.8457031 C153.211775,18.2909979 154.608245,15.2441533 157.401228,12.7050781 C160.526243,9.85350137 164.705889,8.42773438 169.94029,8.42773438 C174.549688,8.42773438 178.348478,9.48241133 181.336775,11.5917969 C184.383665,13.7207138 186.131694,16.6406064 186.580915,20.3515625 C186.580915,20.6640641 186.463729,20.9374988 186.229353,21.171875 C185.975445,21.4257825 185.692245,21.5527344 185.379743,21.5527344 L176.707868,21.5527344 C176.141459,21.5527344 175.760604,21.2792996 175.56529,20.7324219 C174.920756,18.6816304 173.045774,17.65625 169.94029,17.65625 C166.073083,17.65625 164.139509,19.0527204 164.139509,21.8457031 C164.139509,23.1933661 164.715675,24.1503878 165.868025,24.7167969 C166.395371,24.951173 166.893413,25.1269525 167.362165,25.2441406 C168.065294,25.4394541 169.032081,25.585937 170.262556,25.6835938 C175.145393,26.1523461 178.387548,26.6992156 179.989118,27.3242188 Z M208.692522,27.9980469 C207.540173,27.1972616 206.270654,26.796875 204.883929,26.796875 C203.477672,26.796875 202.198387,27.1972616 201.046038,27.9980469 C199.91322,28.7793008 199.063619,29.8144467 198.49721,31.1035156 L211.24135,31.1035156 C210.674941,29.8144467 209.82534,28.7793008 208.692522,27.9980469 Z M193.8976,24.1015625 C196.905428,21.0742036 200.479611,19.5605469 204.620257,19.5605469 C208.839028,19.5605469 212.442507,20.9765483 215.430804,23.8085938 C218.497225,26.6992332 220.030413,30.2636507 220.030413,34.5019531 L220.030413,36.2890625 C220.030413,36.7187521 219.88393,37.0800767 219.59096,37.3730469 C219.29799,37.6660171 218.936665,37.8125 218.506975,37.8125 L198.409319,37.8125 C198.721821,39.2773511 199.464001,40.4882765 200.635882,41.4453125 C201.807763,42.4218799 203.204233,42.9589839 204.825335,43.0566406 L204.825335,43.0859375 L205.352679,43.0859375 C206.114401,43.0859375 206.846816,42.9785167 207.549944,42.7636719 C209.131983,42.4121076 210.489392,41.7480518 211.62221,40.7714844 L211.62221,40.8007812 C211.91518,40.507811 212.276505,40.4003902 212.706194,40.4785156 C213.07729,40.556641 213.409318,40.7519516 213.702288,41.0644531 L216.602679,44.140625 C216.91518,44.4726579 217.071429,44.8730445 217.071429,45.3417969 C217.051897,45.7910179 216.885883,46.1718734 216.573382,46.484375 C213.370241,49.2187637 209.385906,50.5859375 204.620257,50.5859375 C200.596799,50.5859375 197.061678,49.0722808 194.014788,46.0449219 C190.909304,42.9589689 189.356585,39.2968962 189.356585,35.0585938 C189.356585,30.80076 190.870242,27.1484527 193.8976,24.1015625 Z M232.854911,40.3320312 C234.30023,41.777351 236.038494,42.5 238.069754,42.5 C240.081483,42.5 241.809982,41.777351 243.255301,40.3320312 C244.68109,38.8671802 245.393973,37.1093853 245.393973,35.0585938 C245.393973,33.0078022 244.68109,31.2500073 243.255301,29.7851562 C241.809982,28.3398365 240.081483,27.6171875 238.069754,27.6171875 C236.038494,27.6171875 234.30023,28.3398365 232.854911,29.7851562 C231.429122,31.2500073 230.716239,33.0078022 230.716239,35.0585938 C230.716239,37.1093853 231.429122,38.8671802 232.854911,40.3320312 Z M246.653739,20 L253.040458,20 C253.450616,20 253.802175,20.1464829 254.095145,20.4394531 C254.388115,20.7324233 254.534598,21.0839823 254.534598,21.4941406 L254.534598,48.5058594 C254.534598,48.9160177 254.388115,49.2675767 254.095145,49.5605469 C253.802175,49.8535171 253.450616,50 253.040458,50 L246.653739,50 C246.243581,50 245.892022,49.8535171 245.599051,49.5605469 C245.306081,49.2675767 245.159598,48.9160177 245.159598,48.5058594 L245.159598,47.2167969 C242.503335,49.4433705 239.534615,50.5566406 236.253348,50.5566406 C232.288485,50.5566406 228.841253,49.0429839 225.911551,46.015625 C222.942786,42.9492034 221.458426,39.2968962 221.458426,35.0585938 C221.458426,30.8202913 222.942786,27.1679841 225.911551,24.1015625 C228.841253,21.0742036 232.288485,19.5605469 236.253348,19.5605469 C239.534615,19.5605469 242.503335,20.673817 245.159598,22.9003906 L245.159598,21.4941406 C245.159598,21.0839823 245.306081,20.7324233 245.599051,20.4394531 C245.892022,20.1464829 246.243581,20 246.653739,20 Z M270.845424,29.1113281 C272.056368,28.1152294 273.57979,27.6171875 275.415737,27.6171875 C276.743868,27.6171875 277.935263,28.0175741 278.989955,28.8183594 C279.868866,29.5019565 280.376673,29.8632811 280.513393,29.9023438 C280.923551,30.0390632 281.294641,29.98047 281.626674,29.7265625 C281.939176,29.4921863 282.095424,29.1601584 282.095424,28.7304688 L282.095424,21.2890625 C282.095424,20.644528 281.792693,20.2050793 281.187221,19.9707031 C280.112997,19.6972643 279.048554,19.5605469 277.993862,19.5605469 C274.243843,19.5605469 271.187233,20.9374862 268.82394,23.6914062 L268.82394,21.4648438 C268.82394,21.0546854 268.677457,20.7031265 268.384487,20.4101562 C268.091516,20.117186 267.739957,19.9707031 267.329799,19.9707031 L258.892299,19.9707031 C258.579798,19.9707031 258.306363,20.0781239 258.071987,20.2929688 C257.857142,20.5273449 257.749721,20.8007797 257.749721,21.1132812 C257.749721,21.4843769 257.915735,21.7871082 258.247768,22.0214844 C258.384487,22.1191411 258.511439,22.2265619 258.628627,22.34375 C259.175505,22.8906277 259.44894,23.5449181 259.44894,24.3066406 L259.44894,48.5058594 C259.44894,48.9160177 259.585657,49.2675767 259.859096,49.5605469 C260.152066,49.8535171 260.503625,50 260.913783,50 L267.329799,50 C267.739957,50 268.091516,49.8535171 268.384487,49.5605469 C268.677457,49.2675767 268.82394,48.9160177 268.82394,48.5058594 L268.82394,34.765625 C268.902065,32.1484244 269.575886,30.2636776 270.845424,29.1113281 Z M303.650391,29.1113281 C303.982424,29.3066416 304.343748,29.3847658 304.734375,29.3457031 C305.125002,29.3066404 305.466795,29.150392 305.759766,28.8769531 L309.011719,25.4785156 C309.343752,25.1660141 309.5,24.8046896 309.480469,24.3945312 C309.460937,23.9648416 309.275392,23.5937516 308.923828,23.28125 C306.013657,20.8007688 302.410178,19.5605469 298.113281,19.5605469 C293.835916,19.5605469 290.173843,21.0742036 287.126953,24.1015625 C284.080063,27.1289214 282.556641,30.7812286 282.556641,35.0585938 C282.556641,39.3359589 284.080063,42.9882661 287.126953,46.015625 C290.173843,49.0429839 293.835916,50.5566406 298.113281,50.5566406 C302.468772,50.5566406 306.179672,49.1601702 309.246094,46.3671875 C309.441407,46.1328113 309.519531,45.8593766 309.480469,45.546875 C309.441406,45.2343734 309.304689,44.9511731 309.070312,44.6972656 L305.730469,41.2402344 C305.45703,40.9472642 305.125002,40.7812502 304.734375,40.7421875 C304.343748,40.7031248 303.982424,40.7910146 303.650391,41.0058594 C302.068351,42.0410208 300.486336,42.5585938 298.904297,42.5585938 C297.029287,42.5585938 295.388679,41.8261792 293.982422,40.3613281 C292.576165,38.8769457 291.873047,37.1093853 291.873047,35.0585938 C291.873047,33.0078022 292.576165,31.2304763 293.982422,29.7265625 C295.388679,28.2617114 297.029287,27.5292969 298.904297,27.5292969 C300.486336,27.5292969 302.068351,28.0566354 303.650391,29.1113281 Z M341.318638,28.8183594 C341.318638,26.2597528 340.254196,24.0625092 338.125279,22.2265625 C336.015893,20.4101472 333.535449,19.5019531 330.683873,19.5019531 C327.265887,19.5019531 324.482712,20.722644 322.334263,23.1640625 L322.334263,11.3574219 C322.334263,10.9472636 322.18778,10.5957046 321.89481,10.3027344 C321.60184,10.0097642 321.250281,9.86328125 320.840123,9.86328125 L312.402623,9.86328125 C312.090121,9.86328125 311.816686,9.98046758 311.58231,10.2148438 C311.367465,10.4296886 311.260045,10.6933578 311.260045,11.0058594 C311.260045,11.376955 311.426059,11.6796863 311.758091,11.9140625 C311.894811,12.0117192 312.021763,12.11914 312.138951,12.2363281 C312.666297,12.7636745 312.939732,13.4081993 312.959263,14.1699219 L312.959263,48.5058594 C312.959263,48.9160177 313.095981,49.2675767 313.36942,49.5605469 C313.66239,49.8535171 314.013949,50 314.424107,50 L320.840123,50 C321.250281,50 321.60184,49.8535171 321.89481,49.5605469 C322.18778,49.2675767 322.334263,48.9160177 322.334263,48.5058594 L322.334263,32.5097656 C322.353795,31.2206967 322.832306,30.1269576 323.76981,29.2285156 C324.707315,28.3300736 325.830351,27.8808594 327.138951,27.8808594 C328.447551,27.8808594 329.570587,28.3300736 330.508091,29.2285156 C331.445596,30.1269576 331.924107,31.2206967 331.943638,32.5097656 L331.943638,48.5058594 C331.943638,48.9160177 332.090121,49.2675767 332.383091,49.5605469 C332.676062,49.8535171 333.027621,50 333.437779,50 L339.824498,50 C340.234656,50 340.586215,49.8535171 340.879185,49.5605469 C341.172155,49.2675767 341.318638,48.9160177 341.318638,48.5058594 L341.318638,28.8183594 Z" id="Logo-Search" fill="#474F58"></path>
                <rect id="Rectangle-3" fill="#F8E71C" x="0" y="4" width="7" height="18"></rect>
            </g>
        </g>
    </g>
</svg>